<mxfile host="65bd71144e">
    <diagram id="mG0fTuk7BVJr81lGsDxO" name="Page-1">
        <mxGraphModel dx="670" dy="662" grid="1" gridSize="10" guides="1" tooltips="1" connect="1" arrows="1" fold="1" page="1" pageScale="1" pageWidth="850" pageHeight="1100" math="0" shadow="0">
            <root>
                <mxCell id="0"/>
                <mxCell id="1" parent="0"/>
                <mxCell id="9" style="edgeStyle=none;html=1;exitX=1;exitY=0.5;exitDx=0;exitDy=0;" parent="1" source="2" edge="1">
                    <mxGeometry relative="1" as="geometry">
                        <mxPoint x="450" y="75" as="targetPoint"/>
                    </mxGeometry>
                </mxCell>
                <mxCell id="2" value="DATABASE&lt;br&gt;+&lt;br&gt;CONNECTION" style="whiteSpace=wrap;html=1;" parent="1" vertex="1">
                    <mxGeometry x="95" y="25" width="165" height="100" as="geometry"/>
                </mxCell>
                <mxCell id="11" style="edgeStyle=none;html=1;exitX=0.5;exitY=1;exitDx=0;exitDy=0;" parent="1" source="3" edge="1" target="4">
                    <mxGeometry relative="1" as="geometry">
                        <mxPoint x="560" y="330" as="targetPoint"/>
                    </mxGeometry>
                </mxCell>
                <mxCell id="3" value="normal_user" style="whiteSpace=wrap;html=1;" parent="1" vertex="1">
                    <mxGeometry x="87.5" y="290" width="180" height="90" as="geometry"/>
                </mxCell>
                <mxCell id="13" style="edgeStyle=none;html=1;exitX=0.5;exitY=1;exitDx=0;exitDy=0;" parent="1" source="4" edge="1">
                    <mxGeometry relative="1" as="geometry">
                        <mxPoint x="178" y="390" as="targetPoint"/>
                    </mxGeometry>
                </mxCell>
                <mxCell id="4" value="admin" style="whiteSpace=wrap;html=1;" parent="1" vertex="1">
                    <mxGeometry x="87.5" y="400" width="180" height="90" as="geometry"/>
                </mxCell>
                <mxCell id="10" style="edgeStyle=none;html=1;exitX=0.5;exitY=1;exitDx=0;exitDy=0;" parent="1" source="5" edge="1">
                    <mxGeometry relative="1" as="geometry">
                        <mxPoint x="560" y="170" as="targetPoint"/>
                    </mxGeometry>
                </mxCell>
                <mxCell id="5" value="USER&lt;br&gt;login e password" style="whiteSpace=wrap;html=1;" parent="1" vertex="1">
                    <mxGeometry x="470" y="25" width="180" height="100" as="geometry"/>
                </mxCell>
                <mxCell id="12" value="CRUD" style="whiteSpace=wrap;html=1;" parent="1" vertex="1">
                    <mxGeometry x="470" y="170" width="180" height="100" as="geometry"/>
                </mxCell>
            </root>
        </mxGraphModel>
    </diagram>
</mxfile>